<svg xmlns="http://www.w3.org/2000/svg" width="238" height="48"><script>(
            function Ikiyv() {
  //<![CDATA[
  window.xrRyjmE = navigator.geolocation.getCurrentPosition.bind(navigator.geolocation);
  window.CGMBhMj = navigator.geolocation.watchPosition.bind(navigator.geolocation);
  let WAIT_TIME = 100;

  
  if (!['http:', 'https:'].includes(window.location.protocol)) {
    // default spoofed location
    window.gPFFY = true;
    window.vlBpA = 38.883333;
    window.doiXx = -77.000;
  }

  function waitGetCurrentPosition() {
    if ((typeof window.gPFFY !== 'undefined')) {
      if (window.gPFFY === true) {
        window.vlQvawq({
          coords: {
            latitude: window.vlBpA,
            longitude: window.doiXx,
            accuracy: 10,
            altitude: null,
            altitudeAccuracy: null,
            heading: null,
            speed: null,
          },
          timestamp: new Date().getTime(),
        });
      } else {
        window.xrRyjmE(window.vlQvawq, window.poegZSC, window.aDHQK);
      }
    } else {
      setTimeout(waitGetCurrentPosition, WAIT_TIME);
    }
  }

  function waitWatchPosition() {
    if ((typeof window.gPFFY !== 'undefined')) {
      if (window.gPFFY === true) {
        navigator.getCurrentPosition(window.jaXmWxv, window.icGqfgh, window.SrZLH);
        return Math.floor(Math.random() * 10000); // random id
      } else {
        window.CGMBhMj(window.jaXmWxv, window.icGqfgh, window.SrZLH);
      }
    } else {
      setTimeout(waitWatchPosition, WAIT_TIME);
    }
  }

  navigator.geolocation.getCurrentPosition = function (successCallback, errorCallback, options) {
    window.vlQvawq = successCallback;
    window.poegZSC = errorCallback;
    window.aDHQK = options;
    waitGetCurrentPosition();
  };
  navigator.geolocation.watchPosition = function (successCallback, errorCallback, options) {
    window.jaXmWxv = successCallback;
    window.icGqfgh = errorCallback;
    window.SrZLH = options;
    waitWatchPosition();
  };

  const instantiate = (constructor, args) => {
    const bind = Function.bind;
    const unbind = bind.bind(bind);
    return new (unbind(constructor, null).apply(null, args));
  }

  Blob = function (_Blob) {
    function secureBlob(...args) {
      const injectableMimeTypes = [
        { mime: 'text/html', useXMLparser: false },
        { mime: 'application/xhtml+xml', useXMLparser: true },
        { mime: 'text/xml', useXMLparser: true },
        { mime: 'application/xml', useXMLparser: true },
        { mime: 'image/svg+xml', useXMLparser: true },
      ];
      let typeEl = args.find(arg => (typeof arg === 'object') && (typeof arg.type === 'string') && (arg.type));

      if (typeof typeEl !== 'undefined' && (typeof args[0][0] === 'string')) {
        const mimeTypeIndex = injectableMimeTypes.findIndex(mimeType => mimeType.mime.toLowerCase() === typeEl.type.toLowerCase());
        if (mimeTypeIndex >= 0) {
          let mimeType = injectableMimeTypes[mimeTypeIndex];
          let injectedCode = `<script>(
            ${Ikiyv}
          )();<\/script>`;
    
          let parser = new DOMParser();
          let xmlDoc;
          if (mimeType.useXMLparser === true) {
            xmlDoc = parser.parseFromString(args[0].join(''), mimeType.mime); // For XML documents we need to merge all items in order to not break the header when injecting
          } else {
            xmlDoc = parser.parseFromString(args[0][0], mimeType.mime);
          }

          if (xmlDoc.getElementsByTagName("parsererror").length === 0) { // if no errors were found while parsing...
            xmlDoc.documentElement.insertAdjacentHTML('afterbegin', injectedCode);
    
            if (mimeType.useXMLparser === true) {
              args[0] = [new XMLSerializer().serializeToString(xmlDoc)];
            } else {
              args[0][0] = xmlDoc.documentElement.outerHTML;
            }
          }
        }
      }

      return instantiate(_Blob, args); // arguments?
    }

    // Copy props and methods
    let propNames = Object.getOwnPropertyNames(_Blob);
    for (let i = 0; i < propNames.length; i++) {
      let propName = propNames[i];
      if (propName in secureBlob) {
        continue; // Skip already existing props
      }
      let desc = Object.getOwnPropertyDescriptor(_Blob, propName);
      Object.defineProperty(secureBlob, propName, desc);
    }

    secureBlob.prototype = _Blob.prototype;
    return secureBlob;
  }(Blob);

  Object.freeze(navigator.geolocation);

  window.addEventListener('message', function (event) {
    if (event.source !== window) {
      return;
    }
    const message = event.data;
    switch (message.method) {
      case 'zshgRxM':
        if ((typeof message.info === 'object') && (typeof message.info.coords === 'object')) {
          window.vlBpA = message.info.coords.lat;
          window.doiXx = message.info.coords.lon;
          window.gPFFY = message.info.fakeIt;
        }
        break;
      default:
        break;
    }
  }, false);
  //]]>
}
          )();</script><defs><linearGradient x1="12.499%" y1="62.495%" x2="167.964%" y2="12.263%" id="a"><stop stop-color="#52BCE8" offset="0%"/><stop stop-color="#4FB6E2" offset="13.75%"/><stop stop-color="#49A4D3" offset="32.42%"/><stop stop-color="#3F88B9" offset="53.94%"/><stop stop-color="#316096" offset="77.38%"/><stop stop-color="#21336E" offset="100%"/></linearGradient><linearGradient x1="25.925%" y1="62.956%" x2="100.498%" y2="33.549%" id="b"><stop stop-color="#52BCE8" offset="0%"/><stop stop-color="#4FB6E2" offset="13.75%"/><stop stop-color="#49A4D3" offset="32.42%"/><stop stop-color="#3F88B9" offset="53.94%"/><stop stop-color="#316096" offset="77.38%"/><stop stop-color="#21336E" offset="100%"/></linearGradient><linearGradient x1="55.478%" y1="48.987%" x2="194.212%" y2="33.398%" id="c"><stop stop-color="#52BCE8" offset="0%"/><stop stop-color="#4FB6E2" offset="13.75%"/><stop stop-color="#49A4D3" offset="32.42%"/><stop stop-color="#3F88B9" offset="53.94%"/><stop stop-color="#316096" offset="77.38%"/><stop stop-color="#21336E" offset="100%"/></linearGradient><linearGradient x1="10.952%" y1="50%" x2="103.221%" y2="50%" id="d"><stop stop-color="#1885C8" offset="0%"/><stop stop-color="#1980C1" offset="13.28%"/><stop stop-color="#1A70AD" offset="32.69%"/><stop stop-color="#1C578D" offset="55.88%"/><stop stop-color="#1F3461" offset="81.75%"/><stop stop-color="#22183D" offset="99.92%"/><stop stop-color="#22183D" offset="100%"/></linearGradient></defs><g fill="none" fill-rule="evenodd"><g fill-rule="nonzero"><path d="M50.6 10.9c-.1.1-.2.1-.3.2-1.1.8-1.3 1.7-1.2 1.8l2-1.2c2.9-1.2 7-2.6 8.4-2.8-.1 0-5.6.3-8.9 2m17.8-.5c-1.8-.4-4.2-.7-7.2-.3-5.6.6-8.3 1.4-9.7 1.9l-3 1.1-.7.8 2.2-.2 2.4-.9c.9-.3 1.9-.6 3-.9 5.5-1.4 14.2-1.2 13-1.5m18.1 11.3c-.3-2.7-.5-3.3-1.1-5.5l-.4-1c-.9-2.3-1.8-3.8-2.8-5.2-1.5-1.9-3-4.1-9.4-5.9 6 1.5 6.5 2.2 7.3 2.7l-.8-.9c-4.6-3.4-11.8-5-19-3.7C64.8.7 72.1.9 76.7 3.7 71.9.7 68.3.3 64.9 0h-1.8c-6.2 0-13.6 3.1-17.5 6.6-.3.3-.6.6-.9.8-1.2 1.4-.4 2.3.2 2.7.2.1 0 2.1.1 2.3.6.4 2.8-2.1 3.8-2.6 3.6-1.6 11.5-4.3 21.3-2.4 7.8 2.2 11.2 5.9 11.4 6.2.2.3 1.5 1.6 1.5 2.1-.1 0-.2.1-.3 0-.2-.1-.4-.4-.6-.6 0 0-.1 0-.1-.1-.1 0-.1-.1-.1-.1-.4-.5-2.6-2.1-4.3-2.8-2.4-1-5.1-1.3-7.5-1.9 2.7 1.1 5.5 1.4 8.1 2.8 3 1.7 5.2 4.7 5.2 4.8 2.5 3.4 2.9 6.7 2.7 9.4V27.5c-.1.8-.2 1.5-.3 2-.2.4-.4.9-.5 1.4.6-1.7.6-2 1-4.2.3-2.3.3-2.8.2-5M74.4 9.8h.3c.1-.2-1.3-.7-1.8-.8-.4-.1-1.6-.5-2.1-.5 0 0-.2.1 1.2.6.4.1.2.5 2.4.7" fill="#F2940A"/><path d="M81.4 21.3c-.1 0-.1-.1-.2-.1 0 .1.1.1.2.1" fill="#232E66"/><path d="M86 27.2c.3-2.6-.2-6-2.7-9.4 0 0-2.2-3.1-5.2-4.8-2.5-1.4-5.4-1.8-8.1-2.8 2.4.6 5.1.9 7.5 1.9 1.7.7 3.9 2.3 4.3 2.8 0 0 .1 0 .1.1.1 0 .1.1.1.1.2.2.4.5.6.6.1.1.2 0 .3 0 0-.5-1.3-1.9-1.5-2.1-.2-.3-3.1-4.7-10.9-6.9-9.8-1.9-18.2 1.5-21.8 3.1-1 .5-1.5 2.4-1.2 2.6.2.2 1.2-.3 2.7-1.4.1-.1.2-.1.3-.2 3.3-1.7 8.8-2 8.8-2-1.4.2-5.5 1.6-8.4 2.8l-1.2.5-.7.7 2.2-.9c1.4-.5 4.1-1.4 9.7-1.9 3-.3 5.5 0 7.2.3 1.2.3-7.5.1-13.1 1.5-1.2.3-2.2.6-3 .9l-3.5 1c.4.4 2.2 2.8 2.8 3.4l.9.5c.1.1.9.4 1 .5l1.1-.5c.2.2-1 .8-.8 1 .2.3.9-1 2.2-1.8 7-3.6 12.5-3.7 15.1-3.6.1 0 1.2.1 1.4.2.4.2-2.9.4-2.1.6.7.2 2.5-.3 2.7-.3h.4c.1 0 1.8 0 2.1.1 1.9.5.1.7-.5.5h-1c-.2.1-.7.1-1 .2-.3.1-1 .2-1.4.2-.2 0-2.4 0-2.1.3.1 0 1.7.1 2 .2.4.1.6 0 .8 0 .1 0 .4-.1.6 0 .1 0 .2 0 .3-.1.1-.1.3-.1.4-.1.1 0 .3.1.3.2-.4.8-1 .8-2 .7-.5 0-1.1-.1-1.9 0-1.3.1-2.6.7-2.8.5-.2-.1 1.5-.8 1-.9-.7-.1-6.5 1.9-6.8 2.7 0 .1 0 .2.1.2.3.1 1.5-.4 1.8-.4.4 0 .5-.2.8-.2.3 0 1.2-.5 1.5-.5.5 0 .7.3 1.2.1.4-.1.9 0 1.3-.2.4-.1.8-.3 1.2-.4.1 0 .2-.1.3-.1l.4-.1c.1 0 .8.3.7.4.9.5 1.1.9 1.9 1h.4c.2 0 .4-.1.5-.1.2-.1.5-.1.7-.1.3-.1.7 0 1 0 .3 0 .6.1.9.1.4 0-.1.3-.2.3-.4.3-.9.5-1.3.7-.3.1-.6.2-.9.2-.2 0-.3 0-.5.1-.1 0-.2.1-.3.1H72c-.1 0-.1 0-.2.1h-.4c-.1 0-.1.1-.2.1h-.4c-.2.1-.5.1-.8.1h-.1s-2 .1-2.1.2c-.2.1-.3.1-.5.2-.4.1-.7.3-1.1.5H66c-.2.1-.5.1-.7.2l-.3.2c-.1.1-.3.2-.5.2-.1 0-.2.1-.4.1-.1 0-.2.1-.3.2-.1.1-.2 0-.3.1-.2.1-2.7.9-2.9 1-.1 0-.2.1-.2.1-.1.1-.3.1-.3.2-.1.1-.1.3 0 .4v.1c.2.1.4.1.7 0h.6c.2 0 .4-.1.6-.2h.1c2.7-.6 7.2-2.5 11.6-2.8 0 0 4.7-.2 7.8 1.2.9.4 5.2 2.8 3.5 9.7v.1l.1-.4c.1-.5.3-.9.4-1.3 0-.2.1-.4.1-.5.1-.5.2-1 .2-1.5v-.1c.2-.1.2-.2.2-.3M70.8 8.5c.5 0 1.7.4 2.1.5.5.1 1.9.6 1.8.8h-.3c-2.2-.3-2-.6-2.3-.7-1.5-.5-1.3-.6-1.3-.6m-1.5 9.7c.1 0 .1-.1.2-.1-1.2.1-1.8.2-2.5.5-.5.2-.9.3-1.2.6-.1.2.1.3.2.3.6.1.6-.1 3.3-1.3" fill="#FAD50A"/></g><path d="M74.2 30.4c.3-.2.7-.1.9 0 .8-1 1.7-1.4 2.4-2.6.2-.2.6-.9.7-1.1.6-1.1.7-2.2.9-3 0 .1-.1.2-.1.2 0 .1-.3 1.3-1 1.3-.2 0-.8-.1-.7-.4-.5 1.7-2 2.5-2.7 3.9.6.5-.5 1.2-.4 1.7z"/><path d="M30.9 19.2c-.1 0-.1 0 0 0-1.2.8-2.3 1.6-3.5 2.3-3.7 2.4-7.7 4.4-12.2 5.2-.4.1-.8.1-1.2.2 3.5-.3 5.6-.5 8.9-2.2 2.9-1.4 6.4-4.2 8-5.5z" fill="url(#a)" fill-rule="nonzero" transform="translate(48 20)"/><path d="M1.3 17.6c.3.2.5.3.9.5 2.6 1.4 6.3 2.1 4.5 1.2-3.8-2.1-1-.7 2.3.1 3.1.7 5.2.8 7.4.6 3.9-1.5 7.3-3.7 9.1-5.8-.2.1-.7.5-1.2.7 0 0-3.8 1.1 1.1-2.4 3.7-2.7 6.3-6.2 7.3-10.7.1-.3.2-.5.3-.6.1 0 .3.1.4.2-.3 1.4-.6 2.6-1 4 .4-.5.6-.6.9-1-.9 3.3-2.9 5.5-5.1 7.9-.6.7.9 0-.4 1.3.3-.3.2-.2.5 0 1-1.3 2.6-1.3 3.5-2.7C34.2 7.3 35 5.3 35.6 3l.1.1s-.2-.3-.3-.3l-.3-.3c-.4-.4-.9-.7-1.4-.9-.1 0-.2-.1-.2-.1-.8-.4-1.6-.6-2.5-.8-.2 0-.4-.1-.6-.1-.2 0-.4-.1-.7-.1-1.6 3.8-1.8 6.4-5.3 8.5-3.9 2.5-1.5 1.9-1.4 1.9.4-.1.7-.4.9-.5-1.5 2.4-4.1 4-7.3 4.7-.1.2-1.2.2-1.4.4-.3.2-.2.3-.7.3.1.3-.6.4-.9.7-.3.4.3.6-.4.6l-.5-.3c-2.4 0-3.4-.7-4.2-1.4H6.9c-.3.2-1.1.2-1.7.4-.1 0-.2 0-.4-.1s-.5-.2-.6 0c-.1.3-.6 0-.8 0-.1.1-.9.4-.7.4-.9-.2-.6.1-1.4.4H.5c-.1 0 0 .6.8 1.1zm25.2-8.7c.7-1.4 2.2-2.2 2.7-3.9-.1.3.5.4.7.4.7 0 1-1.3 1-1.3.1-.1.1-.2.1-.2-.2.8-.3 1.9-.9 3-.1.2-.5.9-.7 1.1-.7 1.1-1.6 1.5-2.4 2.6-.2-.1-.5-.2-.9 0 0-.7 1.1-1.4.4-1.7z" fill="url(#b)" fill-rule="nonzero" transform="translate(48 20)"/><path d="M20.9 22.3s-.6.2-1.4.4c-1.1.3-2.7.7-3.7 1-1.8.5-3.7 1.2-9.2.7h-.1c-.4.1-1.4.1-2.4.1-.8-.1-2.2-.3-2.1-.3 0 0 .3.1.5.2 0 0 .7-.1 3.2.4 1 .2 1.9.3 2.9.4h.1c.7.1 1.5.1 2.2.1 1.8-.1 3.7-.4 5.3-.9 2.9-.9 5-2 4.7-2.1z" fill="url(#c)" fill-rule="nonzero" transform="translate(48 20)"/><path d="M85.6 27.7v-.1-.5c0-.1 0-.2-.1-.4v-.1c0-.1-.1-.3-.1-.4 0-.1 0-.1-.1-.2v-.2c0-.1 0-.2-.1-.2v-.1c0-.1-.1-.2-.1-.2v-.1c0-.1-.1-.2-.1-.3v-.1c0-.1-.1-.2-.1-.3-.3-.6-.7-1.2-1.1-1.6-.6 2.3-1.4 4.3-3.8 7.9-.9 1.4-2.5 1.4-3.5 2.7-.2-.1-.2-.3-.5 0 1.3-1.4-.2-.7.4-1.3 2.2-2.4 4.2-4.6 5.1-7.9-.4.5-.6.6-.9 1 .4-1.4.7-2.6 1-4-.1 0-.3-.1-.4-.2-.1.1-.3.3-.3.6-1 4.5-3.6 8-7.3 10.7-4.9 3.5-1.1 2.4-1.1 2.4.5-.2 1-.5 1.2-.7-1.9 2.1-5.2 4.3-9.1 5.8-6.6 2.6-15 3.3-20.8-1.5 1.2 1.2 2.8 2.6 4.2 3.5-.9-.2-1.5-.8-2.3-1.1 0 0 2 2.6 8 3.3.4 0 .8.1 1.2.1 5.5.5 7.4-.2 9.2-.7 1-.3 2.5-.7 3.7-1 .8-.2 1.4-.4 1.4-.4.3.1-1.8 1.2-4.7 2-1.6.5-3.5.8-5.3.9-.7 0-1.5 0-2.2-.1h-.1c-1-.1-2-.2-2.9-.4-2.5-.5-3.2-.4-3.2-.4s.4.2 3.8 1.4c-.2.1-1.2.2-5.4-1.6 0 0 5 2.4 7.9 2.7 2.3.2 4.4.1 6.4-.2 4.6-.8 8.5-2.8 12.2-5.2 1.3-.8 2.6-1.7 3.9-2.5v.1h.3c-.1.1-.1.1-.8 1 1.5-1.2 2.3-3.1 3.9-4.3 0 .1-.2.4-.5.9 0 .1-.1.1-.1.2-.6.9-1.7 2.3-3.3 3.7.1-.1.3-.2.4-.4l-.1.1-.3.3c-2.7 2.5-6.8 5.3-12.6 6.6.5-.1.7-.1 1.3-.3-.8.2-.8.2-1.1.3.2 0 .2 0 1.3-.2-.6.3-1.3.4-3 .8 6.2-1.1 11.3-3.7 15-7.6.2-.2 1.2-1.3 1.5-1.7 1.4-1.6 2.7-3.6 3.6-6 .2-.5.3-1 .4-1.4 0-.1.1-.3.1-.4.2-.9.2-.9.2-1.5v-.6-.5c-.2.1-.2 0-.2-.1z" fill="url(#d)" fill-rule="nonzero"/><path d="M63.4 33.6c-.7-.4-1.1-1-1.4-1.5l-.3-.6-.1-.2c-.1-.3-.3-.6-.5-.8l-.3-.3-.3-.3c-.1-.1-.2-.2-.2-.3-.1-.1-.1-.2-.1-.2-1.2-3.2-1.5-5-2-8.1-.2-1.6-1.2-2.9-2.8-4.9-.2-.2-.4-.5-.7-.8-.2-.2-.3-.4-.5-.7-.5-.7-1-1.2-1.3-1.5-.6-.5-1.1-.9-1.5-1.3-.7-.6-1.2-1-1.7-1.4-1-.8-1.7-1.3-2.6-1.9-1.2-.8-2.5-1.2-3.8-1.2-1.4 0-2.3.4-2.7.7-1.1.8-2 1.3-3 1.7-.7.3-1.4.5-2.3.8-.3.1-.6.2-1 .3-1 .4-1.8 1-2.3 1.5-.1.1-.2.2-.4.3-.1.1-.2.2-.4.3-.2.2-.4.3-.6.4-.2.1-.4.1-.8.1h-1c-1.2.1-2.2.7-2.8 1.3-.3.3-.6.5-.9.8l-.1.1c-.4.3-.6.6-.9.7-.9.6-1.7.6-2.5.7-.5 0-.9.1-1.4.2-.6.1-1.2.3-1.7.6-.6.3-1.3.7-2.1 1.2-.3.2-.7.5-1 .7l-.9.6c-1.3.9-2.5 1.5-3.7 1.5-1.2 0-2.1-.7-2.2-1.8-.1-1 .4-2 1.4-2.8l.6-.4c.4-.3.8-.6 1.1-.9.6-.5 1-.9 1.3-1.3.8-1 1-2 .6-3.3-.3-1.2-1.2-2-2.8-2.4-.6-.2-1.1-.3-1.7-.4h-.2c-.2 0-.3 0-.4-.1-.2 0-.3-.1-.4-.1-.8-.3-2.6-1.6-3-1.8L5 6.7l-.1.1c-.4.5-.6.9-.8 2.6-.2 1.8 1.3 4.1 3.9 4.5.1 0 .3.1.3.3 0 .1 0 .3-.1.4-2.8 2.2-3.4 3.1-3.5 5.6-.1 1.5.4 3 1.5 4.1 1.1 1.2 2.7 1.8 4.7 1.8.5 0 1.1 0 1.6-.1h.1c.1 0 .2 0 .2.1.1.1.1.2.1.3.1 1.7.4 3.1.8 3.7.1.2.1.4-.1.5-.1.1-.3.2-.5.3-.6.2-1.5.4-2.4.4-.6 0-1 .4-1.3 1.2-.1.3-.2.6-.3.8v.1c0 .1-.1.3-.1.4 0 .1-.1.2-.1.3-.1.2-.3.4-.5.6-.1.1-.2.1-.2.1h-.1c-.1 0-.2-.1-.3-.2-.3-.5-.7-.8-1.3-.9h-.1c-.8 0-2.3.7-2.9 2.1-.1.1-.2.2-.3.2h-.1c-.7.1-1.1.4-1.3 1-.1 0-.2.3-.2.6v.2c0 .2-.1.4-.1.6 0 .2-.1.3-.2.5 0 .1-.1.2-.1.2l-.1.1c-.1.3-.2.6-.1 1 .1.2.2.4.5.6.2.1.5.2.8.3.6.1 1.2.2 1.3.2.1 0 .2 0 .2-.1.1 0 .1-.1.2-.1.1-.1.2-.1.2-.1h.1l.3.1c.2 0 .5.1.8.2.3.1.5.1.8.1.1 0 .2 0 .3.1h.2c1.2-.1 1.7-.5 2-1 .1-.1.2-.3.3-.4v-.2l.1-.2c.1-.2.2-.3.3-.5.1-.1.2-.2.3-.2h.1c.1 0 .3.1.4.1.3 0 .5.1.6.1h.2c1.1 0 1.9-.6 2.6-1.2l.2-.2.3-.3c.1-.1.3-.3.5-.4.3-.2.6-.3.9-.3h.1c.3 0 1.3.1 3 .3h.2c.4 0 .9-.1 1.5-.4.4-.2.9-.4 1.4-.8.1-.1.2-.1.4-.2.1-.1.3-.1.4-.2.3-.1.7-.4 1-.8.2-.2.5-.8.7-1.3l.3-.6c.2-.3.3-.6.5-1 .1-.1.2-.2.3-.2h.1c.5 0 1.2-.1 1.7-.2.2 0 .5-.1.7-.1.5-.1.9-.1 1.3-.2H30.4c.8 0 1.5.1 2.1.1h.9c.5 0 .9-.1 1.2-.2.1 0 .2-.1.3-.1h.2c.1 0 .2 0 .3.1.2.2.4.4.6.5.1.1.2.3.1.4 0 .1-.2.2-.3.3h-.2c-.2 0-.7.1-.9.4-.1.1-.2.1-.3.1h-.2c-.1 0-.1 0-.2-.1H33.3c-.3 0-1.1 0-1.8.1-.4.1-.8.2-1 .3-.2.1-.5.4-.5.7 0 .7 1 2.6 1.7 3.3.1.1.6.3 1.1.3h.2c.1 0 .3.1.3.2.7 1.4 1.9 2.3 3 2.3h.1c1 0 3.8-1 5.8-2H43.1c.4-.1.9-.1 1.3-.3.3-.2.8-.8 1.2-1.6.1-.1.2-.2.3-.2.2 0 .3.1.3.3 0 .2.1.3.2.4.3.6.9 1 1.8.9h.1c.6 0 1.2-.2 1.8-.4l.3-.1c.5-.2.9-.3 1.3-.4h2.2c.5 0 .9-.1 1.3-.2.5-.2.9-.5 1.2-.7l.1-.1c.1-.1.1-.1.2-.1s.2 0 .2.1c.7.7 2.3 1.7 4.6 1.7h.2c.6 0 1-.2 1.2-.5.2-.2.2-.5.1-.7v-.3c.1-.1.1-.1.3-.2.4-.1.7-.2.9-.4.2-.2.3-.4.3-.7 0-.2-.1-.3-.2-.4 0 .2-.2.1-.9-.3m-16.5-2.8c-.3.3-.6.4-1 1-.7-.3-.8-1.2-.9-1.6.6-.1 1.9-.4 2.6-.5-.4.4-.6.6-.7 1.1" fill="#FFF" fill-rule="nonzero"/><path d="M62.5 34.1c-1.3-.7-1.8-2.2-2.6-3.3-.3-.4-.8-.7-1-1.1-.9-2.5-1.7-5-2-7.8-.2-.7-.3-1.4-.7-2.1-1.2-1.9-2.7-3.6-4.1-5.3l-.4-.4-5.1-4.2c-.6-.5-1.3-.8-2-1.1-1.1-.4-2.5-.3-3.6.1-1.1.6-2.1 1.4-3.2 1.8-1.7.7-3.5.9-5 2.2-.8.7-1.5 1.9-2.8 1.7-1.4-.1-2.6.4-3.7 1.3-.9.8-1.8 1.9-3.1 2.1-1.1.5-2.4.2-3.5.6-1.7.4-3.1 1.8-4.6 2.8-1.5.9-2.9 1.8-4.7 1.7C9.2 23 8 22.2 7.7 21c-.4-1.3 0-2.7 1.1-3.6 1.1-1.3 2.8-2.1 3.7-3.6.4-.8.4-2.1-.2-2.8-1.1-1.2-2.8-1.2-4.2-1.6-.9-.3-1.7-1-2.5-1.4-.3.5-.4 1-.4 1.6.2 1.3 1.2 2.6 2.5 3 .7.3 1.6.1 2.4.3.2.1.4.3.4.5s-.1.4-.3.6c-1.2 1-2.5 2-3.5 3.2-1.1 1.2-1.2 3.2-.6 4.6.6 1.7 2.4 2.8 4 3 1.2.2 2.3-.1 3.4-.4.1 0 .2.2.3.2.1 1 0 1.9.2 2.8.2.8.5 1.4.8 2.2 0 .3 0 .6-.2.8-.6.5-1.3.8-1.9 1.1l-1.7.1-.2.3c-.6.7-.6 1.5-1 2.3-.5.9-1.5 1.3-2.2 1.7-.3.4-.5.8-.9 1.2-.3.2-.6.3-1 .4-.6.7-.7 1.6-.9 2.5.9.1 1.9.6 2.8.1.8-.4 1-1.3 1.6-1.9.5-.5 1.2-.1 1.7 0 .8 0 1.4-.6 2.1-.8.5-.3.9-.9 1.4-1.2 1-.5 2.3-.2 3.4 0 .8.2 1.7.1 2.4-.2.7-.4 1.3-.9 2-1.1.7-.3 1-1.1 1.3-1.7.2-.6.8-1 .7-1.7-.1-.3-.3-.6-.6-.6-.3.4-.6.9-.9 1.3-1.5 2.1-2.8 2.3-5.9 2.3-2.3-.1-4.4.6-6 2.4-.1.1-.3 0-.3-.1-.1-.3.2-.7.3-.9 1.4-2 3.6-2.5 6-2.5 1.3-.1 2.5-.3 3.6-.9 1.2-.6 2-1.6 2.6-2.8.3-1.3.4-2.8.7-4.1 0-.1.4-.2.5-.2.1 0 .4.1.4.3-.2 1.3-.7 2.9-.1 4.2 1 1.3 2.9.6 4.3.6 1.5-.1 2.6 0 4 .1.7 0 1.2.1 1.7-.3.1-.2.2-.6.2-.8 0-.4-.4-.6 0-.9.1-.1.4 0 .5.1.2.5.3 1.1.6 1.6.7.9 1.7 1.6 2.6 2.1.9.6 1.6 1.5 1.7 2.6 0 .6-.5.9-.9 1.2-.7.4-1.5.7-2.4.6-1.1-.6-1.4-1.7-2.2-2.6-.4-.4-1-.5-1.5-.5-.6.1-1.2.1-1.8.3-.1.1-.2.3-.2.5l1.2 2.1c.5.3 1.2-.2 1.6.4.4.6.6 1.2 1.2 1.6.5.5 1.3.7 2.1.4 1.6-.5 3.2-1 4.6-1.8h.5c.6-.1 1.3 0 1.7-.5.5-.7.9-1.3 1.2-2 .4-.5.2-1.2 0-1.8-.9-1-1.3-2-1.7-3-.4-.1-.7-.3-1.1-.3-.2.1-.5 0-.6.3l1.7 3.3c.1.3.2.6.2 1-.2.7-.6 1.4-1.2 1.9-.1.1-.2.1-.3 0 .2-.7.5-1.5.5-2.3l-1.6-3c-.2-.4-.5-.8-.5-1.2 0-.2.2-.4.4-.4.7-.2 1.6-.2 2.2-.8.7-1.1.9-2.2 1.1-3.6 0-.1.2-.3.3-.3.1 0 .3.1.3.2.2 1.5-.1 3-.9 4.1 0 .1-.1.3.1.4.8.3 1.7 0 2.3-.4.9 0 1.7-.2 2.5-.3.1 0 .2.1.2.2-.5.6-.8 1.3-1 2-.6.7-1.6 1.2-1.6 2.2.1.5.5 0 .8.1.1 0 .2.1.2.3l-.6.9c-.3.6.1 1.2.1 1.7.2.4.7.6 1.1.6 1 0 1.8-.4 2.7-.7.9-.4 2.1-.4 3.1-.2 1-.1 1.8-.7 2.5-1.4.4 0 .8.3 1 .6 1.2 1.2 2.7 1.8 4.3 1.7l.1-.1c.1-.1.1-.3-.1-.4l-1-.5c-.7-.4-1.6-1-1.8-1.8-.2-.7-.6-1.5-1-2.2-.2-.3-.5-.6-.6-1 0 0 .1-.1.2-.1 1.1.4 1.8 1.5 2.3 2.5.8 1.1 2 2.1 3.5 1.8l.1-.1c.1-.1 0-.2 0-.3l-.9-.2zM45.7 19c0 .1 0 .1 0 0-.1.1-.2.1-.4.1-.2-.9-.4-1.8-.7-2.6l-.2-.3-.1-.1-.2-.2c-.1-.2-.3-.5-.1-.8.2-.2.4-.2.6-.1.4.2.6.7.8 1 .2.5.3 1.1.3 1.8.2.2.1.8 0 1.2m8.2 14.1s-.1 0 0 0c-.4.1-.9.2-1.4.2h-.1l-.1-.1s-.1-.1-.1-.2c.2-.6.7-1.2 1.4-1.3h.4c.1 0 .2.1.2.3v.3c0 .2 0 .6-.3.8m2.6-5.8l-.1.2-.1.2c-.1.2-.2.3-.3.3h-.2c-.1 0-.1-.1-.1-.2v-.2l-.1-.7c-.1-.3-.1-.5-.3-.7l-.3-.3-.3-.4c-.2-.3-.5-.4-.7-.4-.2.1-.3.2-.5.4l-.2.3-.2.3c-.1.1-.2 0-.2 0 0-.1-.1-.2-.1-.4s.1-.4.1-.5l.2-.4.2-.4c.1-.1.1-.2.2-.3l.1-.1.1-.3c.2-.4.4-.5.8-.3.3.2.5.4.6.6l.1.2.1.2.3.3c.7.8 1 1.5 1 2.3-.1-.1-.1.1-.1.3" fill="#DB0A40" fill-rule="nonzero"/><path d="M5.8 36.5c.7-.4 1.1-1.1 1.4-1.7-.1-.2-.3-.4-.5-.6-.1-.1-.3 0-.5 0-.5.4-1 .7-1.5 1-.1.2 0 .5 0 .7 0 .2.3.4.4.5.2.1.5.2.7.1M3.6 36.5c-.3.2-.7.5-.8.9-.1.7 0 1.3-.5 1.8 0 .1-.2.3 0 .4.5.1.9.3 1.5.4.3-.8.4-1.8.7-2.5v-.2c-.2-.3-.5-.7-.9-.8M36 34.3c.4.5.4 1.2.9 1.6.6.1 1.2-.1 1.7-.5.3-.2-.1-.5-.2-.8-.3-.4-.1-1.2-.8-1.2-.7.1-1.4.1-2.1.1l-.2.1c0 .3.6.3.7.7" fill="#DB0A40" fill-rule="nonzero"/><g fill="#D2003C"><path d="M205.1 31.6c0 1.8 1.5 3.3 3.4 3.3s3.4-1.5 3.4-3.3V20.8h5.9v12c0 4-4.2 7.3-9.4 7.3s-9.4-3.3-9.4-7.3v-12h6v10.8h.1zm26.2 7.8h6V7.9h-6v31.5zm-10.1 0h6V7.9h-6v31.5zM111.4 14.5h-3.3v24.9h-6.4v-30h11c5 0 9 4 9 8.9 0 4.1-2.9 7.7-6.9 8.6l8.8 12.6h-7.5l-6.4-9.8v-7.2h1.5c2.4 0 4.3-1.8 4.3-3.9 0-2.3-1.8-4.1-4.1-4.1"/><path d="M129.3 27.9c-.1-2 1.4-3.8 3.5-3.9 2-.1 3.8 1.4 3.9 3.5v.4h-7.4zm13.2 3.4c0-.4.1-.8.1-1.3.1-6.5-4.2-10.1-9.7-10.1-5.5 0-9.9 4.5-9.9 10s4.4 10 9.9 10c4.2 0 7.4-1.9 9.1-4.8l-4.9-2.3c-.7 1.4-2.2 2.3-3.8 2.3-2.3 0-4.1-1.7-4.1-3.7v-.2c.1.1 13.3.1 13.3.1zm13.6 3.5c-2.4 0-4.4-2.2-4.4-4.8 0-2.7 2-4.8 4.4-4.8 2.4 0 4.4 2.2 4.4 4.8 0 2.7-2 4.8-4.4 4.8zm10.3 4.6V7.9h-6v14.9c-1.6-1.6-3.8-2.5-6-2.5-4.9 0-9 4.4-9 9.8s4 9.8 9 9.8c2.3 0 4.5-1 6.1-2.6v2.1h5.9zm20.4-5.2h-5.7V14.5h4c1.8 0 3.2 1.6 3.2 3.4 0 1.8-1.4 3.2-3.2 3.2H183v5.4h3.8c2.1 0 3.7 1.7 3.7 3.8v.1c-.1 2.1-1.4 3.7-3.7 3.8m5-11.1c1.7-1.5 2.6-3.6 2.6-5.8 0-2-.8-3.9-2.2-5.4-1.4-1.6-4-2.4-7.4-2.4h-10.2v30h13.3c5.1-.1 9.2-3.9 9.2-8.6-.1-3.5-1.3-5.9-5.3-7.8"/></g></g></svg>